<svg height="512pt" viewBox="0 -49 512 511" width="512pt" xmlns="http://www.w3.org/2000/svg"><path d="m492 .5h-472c-11.046875 0-20 8.953125-20 20v372c0 11.046875 8.953125 20 20 20h472c11.046875 0 20-8.953125 20-20 0-10.863281 0-362.660156 0-372 0-11.046875-8.953125-20-20-20zm-20 372h-432v-250.300781h432zm0-290.300781h-432v-41.699219h432zm-169.746094 243.988281c-44.066406-44.070312-44.066406-115.777344 0-159.847656 7.8125-7.8125 20.476563-7.8125 28.285156 0 7.8125 7.8125 7.8125 20.472656 0 28.285156-28.472656 28.472656-28.472656 74.804688 0 103.277344 7.8125 7.8125 7.8125 20.476562 0 28.285156-7.808593 7.808594-20.472656 7.808594-28.285156 0zm-106.652344-119.582031c0-13.808594 11.195313-25 25-25 13.808594 0 25 11.191406 25 25 0 13.804687-11.191406 25-25 25-13.804687 0-25-11.195313-25-25zm0 79.316406c0-13.804687 11.195313-25 25-25 13.808594 0 25 11.195313 25 25 0 13.808594-11.191406 25-25 25-13.804687 0-25-11.191406-25-25zm0 0"/></svg>